<?xml version="1.0" encoding="utf-8"?>
<!-- Generator: Adobe Illustrator 26.0.0, SVG Export Plug-In . SVG Version: 6.00 Build 0)  -->
<svg version="1.1" id="Layer_1" xmlns="http://www.w3.org/2000/svg" xmlns:xlink="http://www.w3.org/1999/xlink" x="0px" y="0px"
	 viewBox="0 0 162 168" style="enable-background:new 0 0 162 168;" xml:space="preserve">
<ellipse cx="69" cy="41.1" rx="36.4" ry="40.1"/>
<path d="M71.1,111.8c-1.1,3.7-2.2,8.8-2.2,15c0,6.5,1.1,11.9,2.2,15.6c-20,0.1-39.9,0.1-59.9,0.2c-0.4,0-6.3-0.7-9-6.1
	c-1.9-3.8-1.5-8.4,1.1-11.9c4.3-4,10.5-9,18.7-13.3c8.9-4.7,17.1-7.1,23.1-8.3c2.4,1.9,6.1,4.5,11.2,6.4
	C62.4,111.7,67.8,111.9,71.1,111.8z"/>
<path d="M125.9,136.2c-0.4,0.5-0.7,0.9-1.1,1.4c-0.8,1.1-1.3,1.8-1.4,2.8c-0.2,1.3,0.1,2-0.5,2.9c-0.1,0.1-0.7,0.9-1.6,0.9
	c-0.8,0-1.5-0.5-1.9-1.1c-0.5-0.8-0.1-1.3-0.3-2.5c-0.2-1-0.6-1.7-1.1-2.5c-0.4-0.6-0.9-1.2-1.5-2h-11.9l-4.3,11.9h41.8l-4.3-11.9
	H125.9z"/>
<path d="M121.1,122.6c2.2,0,4-1.8,4-4c0-2.2-1.8-4-4-4c-2.2,0-4,1.8-4,4C117.2,120.8,119,122.6,121.1,122.6z"/>
<path d="M121.2,87.6c-22,0-39.8,17.8-39.8,39.7S99.2,167,121.2,167s39.8-17.8,39.8-39.7S143.2,87.6,121.2,87.6z M145,152H97.5
	c-1.4,0-2.3-1.3-1.8-2.6l5.8-15.9c0.3-0.8,1-1.3,1.8-1.3h9.6c-1.1-1.1-2-2-2.3-2.3c-2.8-2.7-5.3-7.2-5.5-11.1
	c-0.3-6.7,6.1-16.3,16.1-16.3c9.9,0,16.1,9.4,15.9,16.1c-0.1,3.9-2.5,8.7-5.7,11.7c-0.2,0.2-1,0.9-2,1.9h9.7c0.8,0,1.6,0.5,1.8,1.3
	l5.8,15.9C147.3,150.7,146.3,152,145,152z"/>
</svg>
