<?xml version="1.0" encoding="utf-8"?>
<!-- Generator: Adobe Illustrator 26.0.0, SVG Export Plug-In . SVG Version: 6.00 Build 0)  -->
<svg version="1.1" id="Layer_1" xmlns="http://www.w3.org/2000/svg" xmlns:xlink="http://www.w3.org/1999/xlink" x="0px" y="0px"
	 viewBox="0 0 162 168" style="enable-background:new 0 0 162 168;" xml:space="preserve">
<g>
	<path d="M121.2,87.5c-22,0-39.8,17.8-39.8,39.7c0,22,17.8,39.7,39.8,39.7c22,0,39.8-17.8,39.8-39.7
		C161,105.3,143.2,87.5,121.2,87.5z M137.7,147.1c-4.5,2.9-9.5,0.5-9.7,0.4c-4.2-2.1-11.1-6.1-17.5-13.4
		c-5.9-6.8-8.9-13.5-10.5-17.9c-0.1-0.6-0.4-3.7,1.8-6.5c2.3-2.9,5.5-3.3,6-3.3c1.3,1.3,2.9,3.1,4.4,5.5c1.4,2.2,2.3,4.3,2.9,6
		c-0.9,2-1.8,4-2.7,6c0.9,1.8,2.4,4.5,5.1,7.1c2.3,2.3,4.7,3.7,6.4,4.6c2.2-0.8,4.4-1.5,6.6-2.3c1.8,0.6,4,1.6,6.4,3.2
		c2.1,1.4,3.8,2.9,5,4.1C141.6,141.8,140.7,145.2,137.7,147.1z"/>
	<ellipse cx="69" cy="41.1" rx="36.4" ry="40.1"/>
	<path d="M71.1,112c-1.1,3.7-2.2,8.8-2.2,15c0,6.5,1.1,11.9,2.2,15.7c-20,0.1-39.9,0.1-59.9,0.2c-0.4,0-6.3-0.7-9-6.1
		c-1.9-3.8-1.5-8.4,1.1-11.9c4.3-4,10.5-9,18.7-13.4c8.9-4.7,17.1-7.1,23.1-8.4c2.4,1.9,6.1,4.5,11.2,6.4
		C62.4,111.8,67.8,112.1,71.1,112z"/>
</g>
</svg>
