<?xml version="1.0" encoding="utf-8"?>
<!-- Generator: Adobe Illustrator 26.0.0, SVG Export Plug-In . SVG Version: 6.00 Build 0)  -->
<svg version="1.1" id="Layer_1" xmlns="http://www.w3.org/2000/svg" xmlns:xlink="http://www.w3.org/1999/xlink" x="0px" y="0px"
	 viewBox="0 0 162 168" style="enable-background:new 0 0 162 168;" xml:space="preserve">
<g>
	<ellipse cx="69" cy="41.1" rx="36.4" ry="40.1"/>
	<path d="M71.1,111.8c-1.1,3.7-2.2,8.8-2.2,15c0,6.5,1.1,11.9,2.2,15.6c-20,0.1-39.9,0.1-59.9,0.2c-0.4,0-6.3-0.7-9-6.1
		c-1.9-3.8-1.5-8.4,1.1-11.9c4.3-4,10.5-9,18.7-13.3c8.9-4.7,17.1-7.1,23.1-8.3c2.4,1.9,6.1,4.5,11.2,6.4
		C62.4,111.7,67.8,111.9,71.1,111.8z"/>
	<polygon points="109.8,126.7 98.8,137.7 98.8,116.4 	"/>
	<path d="M119,130.2l-17.1-16h38.6l-17.2,16C122.2,131.4,120.2,131.3,119,130.2z"/>
	<path d="M129.9,129.4l11,11h-39.1c5-5,11.1-11,11.1-11s4.4,5.4,8.4,5.3C125.8,134.6,129.9,129.4,129.9,129.4z"/>
	<polygon points="132.7,126.8 143.7,116.5 143.7,137.7 	"/>
	<path d="M121.2,87.6c-22,0-39.8,17.8-39.8,39.7c0,21.9,17.8,39.7,39.8,39.7c22,0,39.8-17.8,39.8-39.7
		C161,105.4,143.2,87.6,121.2,87.6z M147.3,144H95.1v-33.5h52.2V144z"/>
</g>
</svg>
